# AST/ASF file generated using VICON BodyLanguage
# -----------------------------------------------
:version 1.10
:name VICON
:units
  mass 1.0
  length 0.45
  angle deg
:documentation
   .ast/.asf automatically generated from VICON data using
   VICON BodyBuilder and BodyLanguage model FoxedUp or BRILLIANT.MOD
:root
   order TX TY TZ RX RY RZ
   axis XYZ
   position 0 0 0  
   orientation 0 0 0 
:bonedata
  begin
     id 1 
     name lhipjoint
     direction 0.677091 -0.635792 0.370561 
     length 2.74323 
     axis 0 0 0  XYZ
  end
  begin
     id 2 
     name lfemur
     direction 0.34202 -0.939693 0  
     length 7.44995  
     axis 0 0 20  XYZ
    dof rx ry rz
    limits (-160.0 20.0)
           (-70.0 70.0)
           (-60.0 70.0)
  end
  begin
     id 3 
     name ltibia
     direction 0.34202 -0.939693 0   
     length 7.34467   
     axis 0 0 20   XYZ
    dof rx
    limits (-10.0 170.0)
  end
  begin
     id 4 
     name lfoot
     direction 0.101953 -0.280114 0.954537   
     length 1.72105   
     axis -90 7.62852e-016 20   XYZ
    dof rx rz
    limits (-45.0 90.0)
           (-70.0 20.0)
  end
  begin
     id 5 
     name ltoes
     direction 1.53537e-011 -4.21915e-011 1   
     length 0.865872   
     axis -90 7.62852e-016 20   XYZ
    dof rx
    limits (-90.0 20.0)
  end
  begin
     id 6 
     name rhipjoint
     direction -0.695735 -0.620586 0.361699   
     length 2.81045  
     axis 0 0 0  XYZ 
  end
  begin
     id 7 
     name rfemur
     direction -0.34202 -0.939693 0   
     length 7.29387   
     axis 0 0 -20   XYZ
    dof rx ry rz
    limits (-160.0 20.0)
           (-70.0 70.0)
           (-70.0 60.0)
  end
  begin
     id 8 
     name rtibia
     direction -0.34202 -0.939693 0   
     length 7.44935   
     axis 0 0 -20   XYZ
    dof rx
    limits (-10.0 170.0)
 end
 begin
     id 9 
     name rfoot
     direction -0.104163 -0.286184 0.952496   
     length 1.77731  
     axis -90 -7.62852e-016 -20   XYZ
    dof rx rz
    limits (-45.0 90.0)
           (-20.0 70.0)
  end
  begin
     id 10 
     name rtoes
     direction -1.5355e-011 -4.21888e-011 1   
     length 0.892424   
     axis -90 -7.62852e-016 -20   XYZ
    dof rx
    limits (-90.0 20.0)
  end
  begin
     id 11 
     name lowerback
     direction 0.0100202 0.997226 -0.0737589   
     length 2.16892   
     axis 0 0 0   XYZ
    dof rx ry rz
    limits (-20.0 45.0)
           (-30.0 30.0)
           (-30.0 30.0)
  end
  begin
     id 12 
     name upperback
     direction 0.00432398 0.999988 -0.00215019   
     length 2.17326   
     axis 0 0 0   XYZ
    dof rx ry rz
    limits (-20.0 45.0)
           (-30.0 30.0)
           (-30.0 30.0)
  end
  begin
     id 13 
     name thorax
     direction -0.00195047 0.999485 0.0320434   
     length 2.18139   
     axis 0 0 0   XYZ
    dof rx ry rz
    limits (-20.0 45.0)
           (-30.0 30.0)
           (-30.0 30.0)
  end
  begin
     id 14 
     name lowerneck
     direction 0.00782762 0.986241 0.165128   
     length 1.88415   
     axis 0 0 0   XYZ
    dof rx ry rz
    limits (-20.0 45.0)
           (-30.0 30.0)
           (-30.0 30.0)
  end
  begin
     id 15 
     name upperneck
     direction 0.00988667 0.981098 -0.193258   
     length 1.9242   
     axis 0 0 0   XYZ
    dof rx ry rz
    limits (-20.0 45.0)
           (-30.0 30.0)
           (-30.0 30.0)
  end
  begin
     id 16
     name head
     direction 0.00252199 0.996513 -0.0833958  
     length 1.93887  
     axis 0 0 0   XYZ
    dof rx ry rz
    limits (-20.0 45.0)
           (-30.0 30.0)
           (-30.0 30.0)
  end
  begin
     id 17 
     name lclavicle
     direction 0.929492 0.368193 -0.0218667  
     length 3.5955  
     axis 0 0 0   XYZ
    dof ry rz
    limits (-20.0 10.0)
           (0.0 20.0)
  end
  begin
     id 18 
     name lhumerus
     direction 1 -4.48972e-011 1.41911e-027   
     length 5.2795   
     axis 180 -30 -90   XYZ
    dof rx ry rz
    limits (-60.0 90.0)
           (-90.0 90.0)
           (-90.0 90.0)
  end
  begin
     id 19
     name lradius
     direction 1 -4.48963e-011 7.05772e-027   
     length 3.53504   
     axis 180 -30 -90   XYZ
    dof rx
    limits (-10.0 170.0)
  end
  begin
     id 20
     name lwrist
     direction 1 -4.48957e-011 9.54866e-027   
     length 1.76752   
     axis -7.69462e-015 90 90   XYZ
    dof ry
    limits (-180.0 0.0)
 end
  begin
     id 21 
     name lhand
     direction 1 -4.48979e-011 1.90973e-026   
     length 0.667948   
     axis -1.21857e-014 90 90   XYZ
    dof rx rz
    limits (-90.0 90.0)
           (-45.0 45.0)
  end
  begin
     id 22 
     name lfingers
     direction 1 -4.48987e-011 3.81946e-026   
     length 0.538517   
     axis -2.43714e-014 90 90   XYZ
    dof rx
    limits (0.0 90.0)
  end
  begin
     id 23
     name lthumb
     direction 0.707107 -6.34962e-011 0.707107   
     length 0.773206   
     axis -90 45 2.85299e-015   XYZ
    dof rx rz
    limits (-45.0 45.0)
           (-45.0 45.0)
  end
  begin
     id 24 
     name rclavicle
     direction -0.898763 0.414256 -0.143584   
     length 3.5176  
     axis 0 0 0   XYZ 
    dof ry rz
    limits (-10.0 20.0)
           (-20.0 0.0)
  end
  begin
     id 25 
     name rhumerus
     direction -1 -4.48971e-011 1.129e-027  
     length 5.25035   
     axis 180 30 90   XYZ
    dof rx ry rz
    limits (-90.0 60.0)
           (-90.0 90.0)
           (-90.0 90.0)
  end
  begin
     id 26 
     name rradius
     direction -1 -4.48955e-011 6.34664e-027   
     length 3.58884   
     axis 180 30 90   XYZ
    dof rx
    limits (-10.0 170.0)
  end
  begin
     id 27 
     name rwrist
     direction -1 -4.48966e-011 9.54866e-027   
     length 1.79442   
     axis -7.69462e-015 -90 -90   XYZ
    dof ry
    limits (-180.0 0.0)
  end
  begin
     id 28
     name rhand
     direction -1 -4.48973e-011 1.90973e-026   
     length 0.779235   
     axis -1.21857e-014 -90 -90   XYZ
    dof rx rz
    limits (-90.0 90.0)
           (-45.0 45.0)
  end
  begin
     id 29
     name rfingers
     direction -1 -4.48984e-011 3.81946e-026   
     length 0.62824   
     axis -2.43714e-014 -90 -90   XYZ
    dof rx
    limits (0.0 90.0)
  end
  begin
     id 30
     name rthumb
     direction -0.707107 -6.34968e-011 0.707107   
     length 0.90203   
     axis -90 -45 -2.85299e-015   XYZ
    dof rx rz
    limits (-45.0 45.0)
           (-45.0 45.0)
  end
:hierarchy
  begin
    root lhipjoint rhipjoint lowerback
    lhipjoint lfemur
    lfemur ltibia
    ltibia lfoot
    lfoot ltoes
    rhipjoint rfemur
    rfemur rtibia
    rtibia rfoot
    rfoot rtoes
    lowerback upperback
    upperback thorax
    thorax lowerneck lclavicle rclavicle
    lowerneck upperneck
    upperneck head
    lclavicle lhumerus
    lhumerus lradius
    lradius lwrist
    lwrist lhand lthumb
    lhand lfingers
    rclavicle rhumerus
    rhumerus rradius
    rradius rwrist
    rwrist rhand rthumb
    rhand rfingers
  end

#!OML:ASF I:\Random Stuff\random\construction\7_22_03\Session 2\subj1.ASF
:FULLY-SPECIFIED
:DEGREES
1
root 3.26114 17.4255 -3.72587 -50.3656 87.2354 -56.0491
lowerback -0.442875 1.48492 0.87345
upperback -2.75761 2.04937 1.03537
thorax -2.58771 1.03215 0.535062
lowerneck -16.4485 1.9371 1.82556
upperneck 11.5775 1.55058 4.55576
head 6.19111 1.23537 1.32083
rclavicle -1.53631e-014 -1.26228e-014
rhumerus -35.4166 -11.149 -73.6729
rradius 14.2758
rwrist 5.42007
rhand -22.8827 18.5544
rfingers 7.12502
rthumb 3.55633 -11.3957
lclavicle -1.53631e-014 -1.26228e-014
lhumerus -36.5861 0.532761 82.8787
lradius 22.5945
lwrist 21.1763
lhand -20.1575 57.868
lfingers 7.12502
lthumb 6.18779 87.7576
rfemur -10.7129 19.9546 19.456
rtibia 21.1845
rfoot -13.5428 -32.4533
rtoes -10.4339
lfemur -14.5847 -25.4517 -13.1348
ltibia 28.8663
lfoot -22.8467 29.2843
ltoes -21.4026
2
root 3.26232 17.4265 -3.7318 -50.0007 87.2196 -55.679
lowerback -0.493619 1.4695 0.835107
upperback -2.76369 2.0274 1.02036
thorax -2.56608 1.02198 0.542856
lowerneck -16.5023 1.93809 1.85801
upperneck 11.7944 1.54484 4.47899
head 6.27038 1.23218 1.29384
rclavicle 3.82249e-014 1.23246e-014
rhumerus -35.1325 -11.2046 -73.8252
rradius 14.4966
rwrist 6.3128
rhand -22.5744 18.084
rfingers 7.12502
rthumb 3.8541 -11.8608
lclavicle 3.82249e-014 1.23246e-014
lhumerus -36.3806 -0.440616 83.8054
lradius 23.2277
lwrist 22.1178
lhand -20.2963 58.5564
lfingers 7.12502
lthumb 6.05378 88.4499
rfemur -10.6782 19.9776 19.4483
rtibia 21.1484
rfoot -13.455 -32.5172
rtoes -10.6548
lfemur -14.5985 -24.872 -13.1603
ltibia 28.8868
lfoot -22.5412 28.7985
ltoes -21.769
3
root 3.26296 17.4268 -3.73843 -49.6482 87.2026 -55.3092
lowerback -0.523999 1.4774 0.853493
upperback -2.77263 2.03665 0.973693
thorax -2.55586 1.02557 0.485327
lowerneck -16.5327 1.91322 1.8499
upperneck 12.0118 1.50628 4.46208
head 6.34584 1.2164 1.28897
rclavicle -1.58323e-014 -1.08338e-014
rhumerus -34.869 -11.5387 -73.8972
rradius 14.7261
rwrist 7.41068
rhand -21.9733 17.7792
rfingers 7.12502
rthumb 4.43459 -12.1543
lclavicle -1.58323e-014 -1.08338e-014
lhumerus -36.1566 -1.29036 84.6065
lradius 23.8772
lwrist 22.7021
lhand -20.1682 58.9192
lfingers 7.12502
lthumb 6.17747 88.8091
rfemur -10.6279 19.9974 19.4381
rtibia 21.1017
rfoot -13.4178 -32.5327
rtoes -10.6377
lfemur -14.5882 -24.5962 -13.1974
ltibia 28.9168
lfoot -22.5333 28.5731
ltoes -21.8518
4
root 3.26226 17.4261 -3.74485 -48.9477 87.1711 -54.5966
lowerback -0.560047 1.48011 0.849565
upperback -2.78288 2.03892 0.934083
thorax -2.54481 1.02631 0.447768
lowerneck -16.589 1.87384 1.83843
upperneck 12.2536 1.44655 4.44946
head 6.43389 1.19141 1.2845
rclavicle -1.43389e-014 -1.32192e-014
rhumerus -34.5343 -11.7089 -74.1205
rradius 15.0409
rwrist 8.30685
rhand -21.1556 17.5666
rfingers 7.12502
rthumb 5.22413 -12.349
lclavicle -1.43389e-014 -1.32192e-014
lhumerus -35.9566 -2.21691 85.4367
lradius 24.5639
lwrist 23.2641
lhand -20.0876 58.9679
lfingers 7.12502
lthumb 6.2552 88.8555
rfemur -10.6029 20.0369 19.4209
rtibia 21.0634
rfoot -13.3753 -32.5331
rtoes -10.6457
lfemur -14.5779 -24.5218 -13.2272
ltibia 28.9386
lfoot -22.6722 28.4849
ltoes -21.2987
5
root 3.2604 17.4251 -3.7503 -48.1356 87.1229 -53.7654
lowerback -0.554665 1.4624 0.81038
upperback -2.81389 2.01566 0.924878
thorax -2.58072 1.01553 0.459939
lowerneck -16.5948 1.89808 1.80168
upperneck 12.4397 1.47644 4.48027
head 6.49372 1.21065 1.30584
rclavicle 1.91699e-015 5.96354e-016
rhumerus -34.2108 -12.3053 -73.9816
rradius 15.3668
rwrist 10.4238
rhand -19.8853 17.9115
rfingers 7.12502
rthumb 6.45057 -11.9703
lclavicle 1.91699e-015 5.96354e-016
lhumerus -35.6134 -2.61267 86.0946
lradius 24.9478
lwrist 23.1973
lhand -20.1464 58.8728
lfingers 7.12502
lthumb 6.1985 88.7621
rfemur -10.5732 20.0992 19.4167
rtibia 21.0092
rfoot -13.2483 -32.5534
rtoes -10.9454
lfemur -14.5643 -24.4537 -13.2359
ltibia 28.9532
lfoot -22.7498 28.355
ltoes -20.4982
6
root 3.25645 17.4261 -3.75423 -47.1826 87.102 -52.8115
lowerback -0.511479 1.43028 0.72541
upperback -2.86989 1.97393 0.91747
thorax -2.66517 0.996628 0.498406
lowerneck -16.6214 1.96607 1.73567
upperneck 12.6325 1.562 4.575
head 6.55769 1.26142 1.35876
rclavicle 2.14326e-014 4.29872e-015
rhumerus -33.9248 -13.3385 -73.5404
rradius 15.7653
rwrist 13.7261
rhand -18.1591 18.7242
rfingers 7.12502
rthumb 8.1168 -11.1
lclavicle 2.14326e-014 4.29872e-015
lhumerus -34.8571 -1.74399 86.2479
lradius 24.682
lwrist 21.6543
lhand -20.0732 58.5387
lfingers 7.12502
lthumb 6.26919 88.4259
rfemur -10.5646 20.1535 19.3801
rtibia 20.9369
rfoot -13.1576 -32.5635
rtoes -11.022
lfemur -14.597 -24.016 -13.2497
ltibia 28.968
lfoot -22.6186 27.9434
ltoes -20.4875
7
root 3.25083 17.4292 -3.75696 -46.4868 87.0549 -52.1321
lowerback -0.490651 1.41266 0.662154
upperback -2.91706 1.95122 0.910637
thorax -2.72727 0.986855 0.525826
lowerneck -16.6207 1.97884 1.72637
upperneck 12.7451 1.57606 4.58494
head 6.59349 1.27097 1.36643
rclavicle -7.39619e-015 -1.38404e-014
rhumerus -33.5353 -13.1184 -74.0163
rradius 16.2422
rwrist 14.313
rhand -16.8798 19.0488
rfingers 7.12502
rthumb 9.35134 -10.7237
lclavicle -7.39619e-015 -1.38404e-014
lhumerus -34.634 -2.67552 87.1716
lradius 25.5149
lwrist 22.0774
lhand -20.1426 58.5296
lfingers 7.12502
lthumb 6.20212 88.4188
rfemur -10.5849 20.2171 19.3691
rtibia 20.8699
rfoot -13.1458 -32.5522
rtoes -10.8768
lfemur -14.6598 -23.3044 -13.2173
ltibia 28.9816
lfoot -22.423 27.3268
ltoes -20.779
8
root 3.24552 17.4304 -3.7648 -45.885 86.9767 -51.5206
lowerback -0.469771 1.41422 0.701086
upperback -2.95534 1.95468 0.89127
thorax -2.77658 0.987491 0.482961
lowerneck -16.5656 1.94415 1.73576
upperneck 12.794 1.53153 4.55708
head 6.60104 1.248 1.35118
rclavicle -2.51919e-014 -5.59703e-015
rhumerus -33.1002 -11.6486 -75.3016
rradius 17.0718
rwrist 12.8483
rhand -16.7914 19.078
rfingers 7.12502
rthumb 9.43664 -10.6907
lclavicle -2.51919e-014 -5.59703e-015
lhumerus -34.4572 -3.58318 88.0546
lradius 26.4899
lwrist 22.4979
lhand -20.0098 58.4295
lfingers 7.12502
lthumb 6.33033 88.3149
rfemur -10.5692 20.2875 19.3823
rtibia 20.8109
rfoot -13.1441 -32.5564
rtoes -10.946
lfemur -14.6633 -22.9354 -13.1964
ltibia 28.9916
lfoot -22.3761 27.0081
ltoes -20.5795
9
root 3.24037 17.4289 -3.77568 -44.9966 86.9417 -50.597
lowerback -0.413462 1.40958 0.757832
upperback -3.00587 1.94989 0.840671
thorax -2.85675 0.982919 0.397105
lowerneck -16.6285 1.92078 1.78516
upperneck 13.0248 1.48924 4.48311
head 6.68783 1.22882 1.31884
rclavicle -8.06078e-015 -1.8605e-015
rhumerus -32.7784 -9.90152 -76.6776
rradius 18.098
rwrist 11.1198
rhand -16.771 19.1984
rfingers 7.12502
rthumb 9.45631 -10.5694
lclavicle -8.06078e-015 -1.8605e-015
lhumerus -34.3009 -4.33091 88.8535
lradius 27.5073
lwrist 22.7541
lhand -19.7716 58.2747
lfingers 7.12502
lthumb 6.56033 88.1531
rfemur -10.5162 20.3331 19.3487
rtibia 20.7547
rfoot -13.1932 -32.5591
rtoes -10.8291
lfemur -14.6352 -22.5969 -13.2588
ltibia 29.002
lfoot -22.2262 26.7983
ltoes -20.6639
